<svg xmlns="http://www.w3.org/2000/svg" xmlns:xlink="http://www.w3.org/1999/xlink" version="1.1" x="0px" y="0px" viewBox="0 0 512 640" style="enable-background:new 0 0 512 512;" xml:space="preserve"><g><g><path d="M486,76c-11.729,0-89.876,0-102.694,0l-7.341-23.002C375.087,32.449,358.095,16,337.333,16H174.667    c-20.761,0-37.753,16.449-38.631,36.998L128.695,76C115.89,76,37.72,76,26,76c-5.523,0-10,4.477-10,10s4.477,10,10,10h40.488    l17.809,356.17c1.229,24.578,21.468,43.83,46.076,43.83h251.256c24.607,0,44.847-19.252,46.076-43.83L445.513,96H486    c5.522,0,10-4.477,10-10S491.522,76,486,76z M155.526,57.707c0.314-0.983,0.474-2.009,0.474-3.041    C156,44.374,164.374,36,174.667,36h162.667C347.626,36,356,44.374,356,54.667c0,1.032,0.159,2.058,0.474,3.041L362.312,76H149.688    L155.526,57.707z M407.729,451.171C407.033,465.094,395.567,476,381.628,476H130.372c-13.94,0-25.405-10.906-26.101-24.828    L86.513,96c11.905,0,330.822,0,338.975,0L407.729,451.171z"/><path d="M166,146c-5.523,0-10,4.477-10,10v260c0,5.522,4.477,10,10,10s10-4.478,10-10V156C176,150.477,171.523,146,166,146z"/><path d="M256,146c-5.523,0-10,4.477-10,10v260c0,5.522,4.477,10,10,10c5.522,0,10-4.478,10-10V156    C266,150.477,261.522,146,256,146z"/><path d="M346,146c-5.522,0-10,4.477-10,10v260c0,5.522,4.478,10,10,10s10-4.478,10-10V156C356,150.477,351.522,146,346,146z"/></g></g><text x="0" y="527" fill="#000000" font-size="5px" font-weight="bold" font-family="'Helvetica Neue', Helvetica, Arial-Unicode, Arial, Sans-serif">Created by Flatart</text><text x="0" y="532" fill="#000000" font-size="5px" font-weight="bold" font-family="'Helvetica Neue', Helvetica, Arial-Unicode, Arial, Sans-serif">from the Noun Project</text></svg>