<svg xmlns="http://www.w3.org/2000/svg" viewBox="0 0 512 640" style="enable-background:new 0 0 512 512" xml:space="preserve">
  <path d="M486 76H383.306l-7.341-23.002C375.087 32.449 358.095 16 337.333 16H174.667c-20.761 0-37.753 16.449-38.631 36.998L128.695 76H26c-5.523 0-10 4.477-10 10s4.477 10 10 10h40.488l17.809 356.17c1.229 24.578 21.468 43.83 46.076 43.83h251.256c24.607 0 44.847-19.252 46.076-43.83L445.513 96H486c5.522 0 10-4.477 10-10s-4.478-10-10-10zM155.526 57.707a9.995 9.995 0 0 0 .474-3.041C156 44.374 164.374 36 174.667 36h162.667C347.626 36 356 44.374 356 54.667c0 1.032.159 2.058.474 3.041L362.312 76H149.688l5.838-18.293zm252.203 393.464C407.033 465.094 395.567 476 381.628 476H130.372c-13.94 0-25.405-10.906-26.101-24.828L86.513 96h338.975l-17.759 355.171z"/>
  <path d="M166 146c-5.523 0-10 4.477-10 10v260c0 5.522 4.477 10 10 10s10-4.478 10-10V156c0-5.523-4.477-10-10-10zM256 146c-5.523 0-10 4.477-10 10v260c0 5.522 4.477 10 10 10 5.522 0 10-4.478 10-10V156c0-5.523-4.478-10-10-10zM346 146c-5.522 0-10 4.477-10 10v260c0 5.522 4.478 10 10 10s10-4.478 10-10V156c0-5.523-4.478-10-10-10z"/>
  <text y="527" font-size="5" font-weight="bold" font-family="'Helvetica Neue', Helvetica, Arial-Unicode, Arial, Sans-serif">Created by Flatart</text>
  <text y="532" font-size="5" font-weight="bold" font-family="'Helvetica Neue', Helvetica, Arial-Unicode, Arial, Sans-serif">from the Noun Project</text>
</svg>
