<svg xmlns="http://www.w3.org/2000/svg" width="520.2" height="520.2" style="enable-background:new 0 0 520.2 520.2" xml:space="preserve">
  <path d="m508.725 89.888-22.949-22.95c-15.301-15.3-38.25-15.3-53.551 0l-68.85 68.85L248.625 1.913H38.25C17.212 1.913 0 19.125 0 40.163v439.875c0 21.037 17.212 38.25 38.25 38.25h286.875c21.037 0 38.25-17.213 38.25-38.25v-191.25l145.35-145.35c15.3-15.3 15.3-38.25 0-53.55zM248.625 30.6l89.888 105.188H267.75c-9.562 0-19.125-9.562-19.125-19.125V30.6zm95.625 449.438c0 9.562-7.65 19.125-19.125 19.125H38.25c-9.562 0-19.125-7.65-19.125-19.125V40.163c0-9.562 7.65-19.125 19.125-19.125H229.5v95.625c0 21.038 17.212 38.25 38.25 38.25h76.5L153 346.163l-19.125 95.625 95.625-19.125 114.75-114.75v172.125zM170.212 357.637l47.812 47.812-59.288 11.476 11.476-59.288zm63.113 34.426L183.6 342.337l214.2-214.2 49.726 49.725-214.201 214.201zM495.338 130.05l-32.513 32.512-49.725-49.725 32.513-32.512c7.65-7.65 19.125-7.65 26.775 0l22.95 22.95c7.649 7.65 7.649 19.125 0 26.775z"/>
</svg>
