<svg id="Layer_1" style="enable-background:new 0 0 512 512" version="1.1" viewBox="0 0 512 512" xml:space="preserve" xmlns="http://www.w3.org/2000/svg">
  <style>
    .st0{fill:#231f20}
  </style>
  <path class="st0" d="M328.7 398.6H155.6c-24.7 0-44.7-20.1-44.7-44.7V180.7c0-24.7 20.1-44.7 44.7-44.7h105.6c11 0 20 9 20 20s-9 20-20 20H155.6c-2.6 0-4.7 2.1-4.7 4.7v173.1c0 2.6 2.1 4.7 4.7 4.7h173.1c2.6 0 4.7-2.1 4.7-4.7V251.2c0-11 9-20 20-20s20 9 20 20v102.7c0 24.6-20 44.7-44.7 44.7z"/>
  <path class="st0" transform="rotate(-133.188 291.081 219.963)" d="M265.7 162h50.9v116h-50.9z"/>
  <path class="st0" d="m354.8 135.9 24.3 25.9c2.9 3.1 2.8 8-.3 10.9L357 193.2 322 156l21.8-20.5c3.2-2.9 8-2.7 11 .4zM225.3 246.8l34.8 37.1-49.2 11.3z"/>
</svg>
