<svg xmlns="http://www.w3.org/2000/svg" xmlns:xlink="http://www.w3.org/1999/xlink" width="64" height="64">
  <defs>
    <linearGradient id="b">
      <stop style="stop-color:#c8c8c8;stop-opacity:1" offset="0"/>
      <stop style="stop-color:#fff;stop-opacity:1" offset="1"/>
    </linearGradient>
    <linearGradient id="a">
      <stop style="stop-color:#9c9c9c;stop-opacity:.6875" offset="0"/>
      <stop style="stop-color:#fff;stop-opacity:1" offset="1"/>
    </linearGradient>
    <linearGradient id="c">
      <stop offset="0" style="stop-color:#000;stop-opacity:1"/>
      <stop offset="1" style="stop-color:#8d8d97;stop-opacity:1"/>
    </linearGradient>
    <linearGradient id="d">
      <stop offset="0" style="stop-color:#936c06;stop-opacity:1"/>
      <stop style="stop-color:#d89e18;stop-opacity:1" offset=".5"/>
      <stop offset=".83" style="stop-color:#fff8e8;stop-opacity:1"/>
      <stop offset="1" style="stop-color:#ccc;stop-opacity:1"/>
    </linearGradient>
    <linearGradient xlink:href="#e" id="l" x1="28.642" y1="29.152" x2="28.503" y2="-1.91" gradientUnits="userSpaceOnUse"/>
    <linearGradient id="e">
      <stop offset="0" style="stop-color:#c4b18e;stop-opacity:1"/>
      <stop style="stop-color:orange;stop-opacity:1" offset=".277"/>
      <stop offset=".582" style="stop-color:#ffd27f;stop-opacity:1"/>
      <stop style="stop-color:#ffe8bf;stop-opacity:1" offset=".859"/>
      <stop offset="1" style="stop-color:#c8c8cf;stop-opacity:1"/>
    </linearGradient>
    <linearGradient id="f">
      <stop offset="0" style="stop-color:#727272;stop-opacity:1"/>
      <stop style="stop-color:#c0c0c3;stop-opacity:.8745098" offset=".44"/>
      <stop style="stop-color:#f9f9ff;stop-opacity:.74901962" offset=".638"/>
      <stop style="stop-color:#fff;stop-opacity:.49803922" offset=".767"/>
      <stop offset="1" style="stop-color:#a0a0ac;stop-opacity:1"/>
    </linearGradient>
    <linearGradient id="g">
      <stop style="stop-color:#ff8d14;stop-opacity:1" offset="0"/>
      <stop offset=".467" style="stop-color:#f19b42;stop-opacity:.74901961"/>
      <stop offset=".793" style="stop-color:#ff8f1e;stop-opacity:.49803922"/>
      <stop style="stop-color:#ea6e06;stop-opacity:1" offset="1"/>
    </linearGradient>
    <linearGradient xlink:href="#c" id="j" gradientUnits="userSpaceOnUse" x1="5" y1="39" x2="5" y2="29"/>
    <linearGradient xlink:href="#d" id="k" gradientUnits="userSpaceOnUse" x1="42.727" y1="1036.352" x2="38.03" y2="1010.594"/>
    <linearGradient xlink:href="#f" id="m" gradientUnits="userSpaceOnUse" x1="190.759" y1="29.657" x2="190.756" y2="-.647"/>
    <radialGradient xlink:href="#b" id="h" cx="50" cy="51.5" fx="50" fy="51.5" r="20" gradientTransform="matrix(1 -1 1.5207 1.5207 -78.316 30.684)" gradientUnits="userSpaceOnUse"/>
    <radialGradient xlink:href="#b" id="i" cx="40" cy="14" fx="40" fy="14" r="5.5" gradientUnits="userSpaceOnUse" gradientTransform="matrix(1 0 0 .9091 0 1.273)"/>
    <radialGradient r="15.09" fy="7.805" fx="238.362" cy="7.805" cx="238.362" gradientTransform="matrix(-1.62587 .4257 -.26206 -1.53355 607.587 900.737)" gradientUnits="userSpaceOnUse" id="n" xlink:href="#g"/>
  </defs>
  <path style="fill:url(#h);stroke:#eaeaea;stroke-width:0;stroke-linecap:butt;stroke-linejoin:miter;stroke-opacity:1;fill-opacity:1;stroke-miterlimit:4;stroke-dasharray:none;filter:url(#filter3887)" d="M10 4v55h40V14H40V4z"/>
  <path style="fill:url(#i);stroke:#eaeaea;stroke-width:0;stroke-linecap:butt;stroke-linejoin:miter;stroke-opacity:1;fill-opacity:1;filter:url(#filter3911);stroke-miterlimit:4;stroke-dasharray:none" d="M40 4v10h10L40 4"/>
  <path transform="matrix(.1002 -.10325 .15171 .14723 14.637 42.122)" d="m-10 34 25-5v10z" style="fill:url(#j);fill-opacity:1;stroke:none"/>
  <path d="m15 1027.362 40 10v-30c-8.373 1.916-22.205 5.392-40 10z" style="fill:url(#k);fill-opacity:1;stroke:none" transform="matrix(.1002 -.10325 .15171 .14723 -135.312 -103.399)"/>
  <path style="fill:url(#l);fill-opacity:1;stroke:none" d="M-85 29h250V-1H-85z" transform="matrix(.1002 -.10325 .15171 .14723 31.7 30.612)"/>
  <path transform="matrix(.1002 -.10325 .15171 .14723 31.7 30.612)" d="M165-1h50v30h-50z" style="fill:url(#m);fill-opacity:1;stroke:none"/>
  <path d="M215 1016.293s20.437.695 20.237-2.307c3.793-7.286 2.13-16.936 0-23.071-3.196-3.17-20.237-2.308-20.237-2.308z" style="fill:url(#n);fill-opacity:1;stroke:none" transform="matrix(.1002 -.10325 .15171 .14723 -118.25 -114.909)"/>
</svg>
